<svg id="Group_2" data-name="Group 2" xmlns="http://www.w3.org/2000/svg" xmlns:xlink="http://www.w3.org/1999/xlink" width="384" height="166.263" viewBox="0 0 384 166.263">
  <defs>
    <clipPath id="clip-path">
      <rect id="Rectangle_1" data-name="Rectangle 1" width="384" height="166.263" fill="#ee1243"/>
    </clipPath>
  </defs>
  <g id="Group_1" data-name="Group 1" clip-path="url(#clip-path)">
    <path id="Path_1" data-name="Path 1" d="M384,150.462c-2.539,8.065-7.315,14.155-16.093,15.266a89.523,89.523,0,0,1-18.315.13c-5.748-.463-9.438-4.646-10.7-10.915-2.507-12.5-9.434-21.324-21.638-25.468a31.774,31.774,0,0,0-41.329,23.743c-2.027,9.738-5.993,12.935-16.073,12.936q-68.043,0-136.087,0c-9.541,0-13.71-3.359-15.643-12.56-3.2-15.245-15.765-25.647-31.086-25.739-15.376-.092-28.1,10.117-31.481,25.268-2.243,10.035-6.007,13.029-16.383,13.032-2.874,0-5.748.012-8.622,0C10.408,166.1,3.871,161.378.651,151.8A10.96,10.96,0,0,0,0,150.462V66.626a8.342,8.342,0,0,0,.68-1.281c3.009-9.129,9.624-14.1,19.26-14.227,7.993-.1,15.992-.157,23.982.042a8.39,8.39,0,0,0,7.345-3.254C61.573,35.874,72.166,24.085,82.529,12.1,89.691,3.819,98.635-.026,109.556,0q56.4.129,112.8,0a34.926,34.926,0,0,1,24.482,9.463q25.514,23.139,51.277,46a12.985,12.985,0,0,0,6.165,2.894c19.072,3.2,38.189,6.139,57.27,9.29C372.858,69.517,380.22,75.968,383.3,87.1a5.733,5.733,0,0,0,.7,1.229ZM351.656,153.4c3.941,0,7.667.022,11.394,0,5.9-.043,8.158-2.276,8.166-8.175q.031-25.447-.005-50.9c-.019-8.049-4.125-12.831-12.077-14.108-19.351-3.107-38.7-6.221-58.073-9.2a19.189,19.189,0,0,1-10.552-4.961c-17.251-15.736-34.732-31.219-52.025-46.91a23.482,23.482,0,0,0-16.631-6.4q-56.057.143-112.114,0a22.254,22.254,0,0,0-18.017,8.212C80.493,34.018,68.971,46.831,57.73,59.885a10.73,10.73,0,0,1-9.092,4.053c-9.371-.174-18.748-.1-28.122-.033-4.992.037-7.677,2.273-7.691,6.721q-.115,37.984-.008,75.969c.011,4.076,2.49,6.588,6.51,6.747,4.234.167,8.479.037,12.834.037.3-.968.617-1.77.793-2.6a44.742,44.742,0,0,1,87.448-.841c.693,3.123,1.936,3.552,4.686,3.546q66.932-.127,133.862-.083c1.316,0,2.632,0,3.828,0,4.624-24.314,23.028-36.5,40.361-38.055a43.608,43.608,0,0,1,28.226,6.874c11.319,7.313,17.818,17.863,20.291,31.18" fill="#ee1243"/>
    <path id="Path_2" data-name="Path 2" d="M166.107,25.55c17.744,0,35.489.06,53.232-.04a17.653,17.653,0,0,1,12.281,4.532q18.8,16.326,37.842,32.381a15.285,15.285,0,0,1,5.8,12.723c-.153,9.725-.1,19.455-.02,29.182.039,4.674-1.924,8.163-5.057,11.59a153.816,153.816,0,0,0-13.762,17.093c-3.423,5.029-7.515,7.66-13.586,7.651q-50.8-.078-101.591,0c-6.238.01-10.657-2.516-13.7-8-9.844-17.718-24.949-27.721-45.1-30.117-7.267-.865-11.921-5.965-11.992-13.333-.058-6.111.072-12.224-.042-18.333a14.534,14.534,0,0,1,3.761-10.249q13.177-15.087,26.3-30.224c3.092-3.569,7.02-4.9,11.654-4.884,17.994.057,35.988.023,53.982.023m13.227,101.836a8.263,8.263,0,0,0,1.433.332c20.5.058,40.995.146,61.491.045,1.22-.006,2.7-1.319,3.6-2.4,4.913-5.933,9.749-11.934,14.449-18.036a8.945,8.945,0,0,0,1.994-4.8c.208-8.727.243-17.465.027-26.191a7.591,7.591,0,0,0-2.3-4.981q-18.048-15.778-36.42-31.182a8.486,8.486,0,0,0-4.989-1.774c-12-.149-24-.085-35.995-.069-1.076,0-2.151.144-3.294.225ZM166.329,38.621a12.817,12.817,0,0,0-1.73-.277c-17.355-.016-34.71-.06-52.064.061a5.733,5.733,0,0,0-3.661,1.945C100.848,49.4,92.93,58.544,85.014,67.689c-.71.821-1.664,1.836-1.686,2.78-.148,6.42-.077,12.845-.077,19.216,22.557,2.8,40.3,12.915,52.283,31.716,3.218,5.05,6.391,6.875,12.112,6.395,6.154-.516,12.385-.116,18.683-.116Z" fill="#ee1243"/>
  </g>
</svg>
