<svg id="Group_14" data-name="Group 14" xmlns="http://www.w3.org/2000/svg" xmlns:xlink="http://www.w3.org/1999/xlink" width="383.361" height="268.204" viewBox="0 0 383.361 268.204">
  <defs>
    <clipPath id="clip-path">
      <rect id="Rectangle_7" data-name="Rectangle 7" width="383.361" height="268.204" fill="#ee1243"/>
    </clipPath>
  </defs>
  <g id="Group_13" data-name="Group 13" clip-path="url(#clip-path)">
    <path id="Path_12" data-name="Path 12" d="M0,98.16c2.626-6.911,6.595-12.445,14.231-14.5,11.692-3.145,23.571,5.37,23.957,17.467.234,7.352.068,14.717.081,22.075,0,1.338,0,2.675,0,4.215H57.544c0-7.708.409-15.19-.091-22.611C56.6,92.236,65.74,81.988,79.46,82.993c5.086.373,10.224.127,15.336.036,4.681-.083,6.808-2.076,7.428-6.671,1.75-12.944,8.457-18.843,21.485-18.865,9.7-.016,19.407,0,29.377,0V38.277c-9.918,0-19.733.043-29.548-.031a30.256,30.256,0,0,1-7.029-.7c-9.421-2.348-15.172-11.041-14.063-20.96A18.647,18.647,0,0,1,120.759.075q64.546-.143,129.094.013c10.283.029,18.26,8.556,18.333,18.87A18.867,18.867,0,0,1,249.8,38.21c-9.35.217-18.709.06-28.063.067H217.4V57.49c2.258,0,4.463,0,6.669,0,6.361.009,12.727-.136,19.082.068C253.816,57.9,261.6,65.829,261.9,76.5c.111,3.863,0,7.732.037,11.6.054,5.4,2.32,7.664,7.808,7.715s10.976-.011,16.464.017c12.394.064,20.289,7.88,20.421,20.339.093,8.73.02,17.462.02,26.193,0,1.346,0,2.692,0,4.259h12.8c0-2.022-.047-4.08.007-6.136.291-11.063,8.274-19.082,19.294-19.1,6.342-.008,12.8-.263,19,.782a30.905,30.905,0,0,1,25.38,29.723c.283,22.2.322,44.406-.007,66.6-.245,16.61-13.489,29.423-30.925,30.484a99.618,99.618,0,0,1-15.691-.161c-9.927-.972-16.708-8.6-17.038-18.569-.069-2.087-.01-4.178-.01-6.5H306.848c-.068,1.4-.184,2.713-.188,4.031-.021,6.861.1,13.723-.04,20.58-.252,12.024-8.165,19.791-20.2,19.8q-66.6.052-133.211.047a20.589,20.589,0,0,1-15.389-6.4c-9.476-9.573-19.077-19.024-28.534-28.617a10.141,10.141,0,0,0-7.932-3.339c-7.979.155-15.964.092-23.947.04-11.694-.078-19.767-8.076-19.85-19.726-.072-10.214-.015-20.428-.015-30.97H38.269v8.7c0,5.363.051,10.727-.016,16.09-.121,9.786-6.617,17.728-15.6,19.178-9.958,1.608-18.517-3.626-21.868-13.354A14.4,14.4,0,0,0,0,208.2V98.16M219.827,255.411q32.178,0,64.356,0c8.018,0,9.663-1.625,9.664-9.6q.008-54.066,0-108.134c0-7.109.054-14.219-.023-21.327-.06-5.551-2.272-7.722-7.73-7.758-5.987-.038-11.977.106-17.959-.049A19.026,19.026,0,0,1,249.187,89.4c-.066-3.491-.006-6.984-.019-10.477-.025-6.651-2.017-8.64-8.752-8.641q-58.369-.013-116.74,0c-6.552,0-7.96,1.288-8.807,7.9C113.5,88.852,105.924,95.659,95.14,95.805c-5.611.076-11.225,0-16.837.022-5.83.028-7.986,2.1-7.989,7.8q-.024,52.758,0,105.515c0,5.734,2.212,7.975,7.863,8,7.608.035,15.223.2,22.823-.047,7.106-.235,12.727,2.3,17.638,7.367,9.024,9.315,18.355,18.332,27.439,27.591a10.651,10.651,0,0,0,8.272,3.411c21.826-.1,43.652-.053,65.479-.053m112.39-70.422c0,14.594-.027,29.189.015,43.784.014,5.13,2.153,7.4,7.205,7.5a126.8,126.8,0,0,0,13.831-.219A18.48,18.48,0,0,0,370.4,217.929q.33-32.74-.005-65.486c-.11-10.128-8.481-18.028-18.606-18.32-3.739-.109-7.484-.041-11.226-.03-6.267.018-8.333,2.032-8.342,8.234q-.03,21.332,0,42.662M185.192,25.525h23.179c13.209,0,26.418.033,39.627-.018,5.221-.02,8.317-3.547,7.231-8.022-.778-3.212-3.241-4.71-7.889-4.711q-62.058-.012-124.116,0a17.019,17.019,0,0,0-2.983.117c-4.72.845-7.081,6.708-3.722,10.056a10.287,10.287,0,0,0,6.616,2.47c20.685.183,41.371.108,62.057.108M25.508,153.49q0-16.085,0-32.168c0-6.358.076-12.718-.048-19.075-.076-3.9-2.715-6.411-6.338-6.4-3.421.013-5.978,2.455-6.331,6.1-.083.865-.037,1.744-.037,2.617q0,48.625,0,97.25a21.463,21.463,0,0,0,.1,3.359,6.25,6.25,0,0,0,8,5.24c3.533-1.019,4.681-3.681,4.671-7.175-.044-16.582-.02-33.165-.018-49.747M204.115,38.52H166.394V57.329h37.721ZM319.11,159.846h-12.2v50.643h12.2ZM57.321,140.763H38.564V165.9H57.321Z" fill="#ee1243"/>
  </g>
</svg>
