<svg xmlns="http://www.w3.org/2000/svg" width="371.215" height="371.439" viewBox="0 0 371.215 371.439">
  <g id="Group_1" data-name="Group 1" transform="translate(0 0)">
    <path id="Path_1" data-name="Path 1" d="M0,167.76c9.97,0,19.8.08,29.62-.09a5.941,5.941,0,0,0,4.19-2.04c7.71-10.97,18.23-17.06,31.41-18.85,4.06-.55,8.09-1.35,12.1-2.04.32-4.34.26-8.48.98-12.48a29.6,29.6,0,0,1,28.65-24.37c4.36-.1,8.75.18,13.09-.13a8.682,8.682,0,0,0,5.12-2.14q28.725-28.44,57.24-57.1c.95-.95,1.95-1.85,3.06-2.9,2.02,1.92,3.89,3.69,5.95,5.65,1.1-1.02,2.11-1.91,3.05-2.85,12.8-12.79,25.64-25.53,38.36-38.4A32.26,32.26,0,0,1,256.94,0c30.69.11,61.38.04,92.08.04h3.9V47.96h-4.14c-28.57,0-57.14-.04-85.71.1a8.567,8.567,0,0,0-5.44,2.25c-11.23,10.98-22.28,22.15-33.81,33.68,2.25,1.66,4.34,3.2,6.66,4.91-7.04,6.93-13.19,12.99-19.22,18.93.61.91.69,1.21.87,1.28,14.63,5.75,21.23,15.47,21.23,31.28V261.68c0,29.08-20.68,49.83-49.66,49.85-9.11,0-18.22-.03-27.32.01-11.2.05-18.79,7.62-18.83,18.81-.05,12.23-.01,24.46-.01,36.69v4.21H77.79V287.58c-4.72,0-9.04-.06-13.36.01a43,43,0,0,1-29.62-10.48,7.28,7.28,0,0,0-4.34-1.45c-10.08-.12-20.16-.06-30.46-.06V167.78ZM184.95,62.87q-21.69,21.72-43.54,43.61c-4.41,4.41-8.15,10.47-13.48,12.69s-12.26.6-18.5.67h-1.12c-10.96.11-18.6,7.68-18.68,18.6-.05,7.11-.02,14.22,0,21.34.01,12.82,7.12,20.02,19.84,20.02q40.05,0,80.1-.05c12.49,0,19.83,7.28,19.84,19.69q.03,28.08,0,56.15c-.02,19.42-12.64,31.97-32.16,31.98H89.93v71.88h35.63c0-9.89-.03-19.35,0-28.8.07-18.22,12.91-31.03,31.15-31.09,9.98-.04,19.97.16,29.94-.08a35.338,35.338,0,0,0,34.01-29.71c.84-5.5.69-11.18.69-16.78q.075-56.34.03-112.68c0-13.34-6.97-20.39-20.2-20.47-1.19,0-2.39-.11-3.76-.18,0-3.58.21-6.83-.06-10.04a8.065,8.065,0,0,1,2.9-7.18c4.29-3.94,8.33-8.16,12.25-12.03-9.3-9.29-18.26-18.25-27.56-27.54ZM11.94,263.61c7.75,0,15.32.1,22.9-.06a7.151,7.151,0,0,1,5.85,2.46,29.827,29.827,0,0,0,23.11,9.58c2.62-.04,5.24,0,7.86,0h50.9c1,0,2,.05,2.99-.03,3.55-.27,5.97-2.72,5.96-5.97a5.844,5.844,0,0,0-5.97-5.93c-5.93-.14-11.86-.04-17.76-.04v-12c5.39,0,10.6.03,15.81-.02a11.744,11.744,0,0,0,4.03-.48,5.454,5.454,0,0,0,3.76-6.51c-.6-3.21-2.82-4.92-6.12-4.95-5.81-.05-11.63-.01-17.39-.01V227.66c5.52,0,10.76.02,15.99,0,4.8-.02,7.53-2.11,7.65-5.8.12-3.84-2.72-6.15-7.65-6.17-5.32-.02-10.65,0-16.02,0V203.71h57.47c5.33,0,8.18-2.15,8.12-6.08-.06-3.9-2.86-5.89-8.3-5.9-2.62,0-5.24.01-7.86.01-16.84,0-33.68.15-50.52-.03a29.344,29.344,0,0,1-28.45-24.1c-.63-3.39-.68-6.9-1.01-10.6-3.64.59-7.18,1.28-10.75,1.73-10.01,1.26-18.19,5.78-23.15,14.59-3,5.33-6.67,7.05-12.54,6.54-6.26-.54-12.6-.12-18.91-.12v83.86ZM142.6,275.35c1.12.09,1.97.22,2.81.22,11.21.01,22.43.07,33.64-.01,10.64-.08,18.26-7.79,18.36-18.5.06-6.48.01-12.96.01-19.44V200.23c0-6.79-1.77-8.52-8.69-8.52h-4.07c.11.96.13,1.46.23,1.94,2.36,11.74-5.68,21.81-17.62,22.01-3.99.07-7.97.01-11.96.01H143.05c0,3.63.47,6.81-.13,9.76s-2.29,5.67-3.57,8.66c5.74,7.67,5.61,15.59-.33,23.55,4.16,5.26,5.6,11.08,3.58,17.7ZM340.99,12.37a4.619,4.619,0,0,0-.96-.3c-28.56-.02-57.12-.21-85.67.19a18.381,18.381,0,0,0-11.29,4.85C228.66,30.9,214.73,45.2,200.64,59.33c-.15.15-.15.45-.09.26,5.14,5.13,10.13,10.11,15.29,15.25.73-.69,1.72-1.59,2.67-2.54,10.5-10.49,21.04-20.94,31.45-31.51a15.294,15.294,0,0,1,11.64-4.86c25.07.1,50.13.05,75.2.05h4.18V12.37Z"/>
    <path id="Path_2" data-name="Path 2" d="M260.27,371.43q-40.23,0-80.47-.02a17.926,17.926,0,0,1-11.62-31.88,19.043,19.043,0,0,1,12.53-4.06q42.48.075,84.97.02c1,0,2,.03,2.99,0,4.04-.15,6.67-2.6,6.59-6.11-.08-3.38-2.61-5.65-6.46-5.86-3.35-.18-6.8.02-10.02-.73a17.687,17.687,0,0,1-13.35-19.1c.9-8.7,8.21-15.97,16.99-16.02q45.855-.24,91.7.01c9.51.06,17.02,8.42,16.99,17.94a17.869,17.869,0,0,1-17.52,17.84c-11.73.18-23.46.08-35.18.04-3-.01-5.41.84-6.66,3.78-1.75,4.11,1.21,8.13,6.18,8.19,7.36.09,14.72,0,22.08.03,11.1.04,19.22,7.76,19.13,18.14-.09,10.2-8.18,17.77-19.12,17.78q-39.87.045-79.73,0Zm.01-11.98H339.6c4.73,0,7.48-2.21,7.51-5.93.04-3.74-2.71-6.02-7.4-6.03-7.48-.03-14.97.07-22.45-.03a17.945,17.945,0,1,1-.06-35.89c7.36-.1,14.72-.02,22.08-.03,4.61,0,9.23.1,13.84-.05a5.874,5.874,0,0,0,5.96-5.94c0-3.26-2.41-5.69-5.96-5.96-.87-.07-1.75-.02-2.62-.02H265.94a27.085,27.085,0,0,0-2.99.05,5.96,5.96,0,0,0-5.62,5.91,5.88,5.88,0,0,0,5.55,5.95c2.23.19,4.61-.38,6.7.18,3.76,1.01,7.84,1.94,10.94,4.12,6.25,4.39,8.22,12.65,5.65,19.79a17.983,17.983,0,0,1-17.32,11.91q-43.215.06-86.43.02a21.041,21.041,0,0,0-3.73.1c-3.22.59-5.17,2.59-5.16,5.9s1.96,5.3,5.18,5.88a21.067,21.067,0,0,0,3.73.1h77.83Z"/>
    <path id="Path_3" data-name="Path 3" d="M347.11,64.49c4.72,9.41,9.02,17.94,13.28,26.5,2.94,5.9,6.12,11.71,8.69,17.78,7,16.48-4.03,34.56-21.17,35.01a24.426,24.426,0,0,1-22.95-34.24c6.53-15.03,14.42-29.48,22.13-45.04Zm-.01,26.68c-4.08,8.47-8.15,15.88-11.27,23.68a12.413,12.413,0,0,0,7,16.13,11.247,11.247,0,0,0,12.74-2.74c4.26-4.32,4.75-9.68,2.47-14.92-3.13-7.18-6.91-14.07-10.93-22.14Z"/>
    <path id="Path_4" data-name="Path 4" d="M347.21,160.53c1.55,3.09,2.77,5.51,3.98,7.93,5.73,11.47,11.59,22.88,17.17,34.42,7.27,15.05-.08,32.28-15.25,35.97-9.44,2.29-17.64-.26-23.97-7.54-6.77-7.78-8.06-17.12-4.01-26.25,6.09-13.76,13.24-27.04,19.95-40.53.55-1.1,1.16-2.17,2.15-4Zm-.05,26.55c-4.03,8.14-7.85,15.26-11.09,22.64a12.719,12.719,0,0,0,1.35,12.84,11.735,11.735,0,0,0,15.27,3.69,12.816,12.816,0,0,0,5.56-16.51C355.04,202.34,351.18,195.23,347.16,187.08Z"/>
    <path id="Path_5" data-name="Path 5" d="M167.44,167.76c-7.73,0-15.46.04-23.19,0-10.58-.07-18.62-7.76-18.69-17.81-.07-10.23,8-18.07,18.76-18.11q23.19-.075,46.37,0c10.59.03,18.62,7.74,18.69,17.8.08,10.23-7.99,18.05-18.76,18.12-7.73.05-15.46,0-23.19,0Zm.31-23.96c-7.61,0-15.22-.02-22.83,0-4.67.02-7.42,2.34-7.36,6.07.06,3.63,2.71,5.88,7.18,5.88q22.635.045,45.28,0c4.66,0,7.43-2.35,7.37-6.08s-2.79-5.87-7.56-5.89c-7.36-.02-14.72,0-22.08,0Z"/>
    <path id="Path_6" data-name="Path 6" d="M101.66,143.57V132.12h11.65v11.45Z"/>
    <path id="Path_7" data-name="Path 7" d="M113.49,156.1v11.38H101.84V156.1Z"/>
  </g>
</svg>
