<svg id="Group_3" data-name="Group 3" xmlns="http://www.w3.org/2000/svg" xmlns:xlink="http://www.w3.org/1999/xlink" width="383.133" height="303.45" viewBox="0 0 383.133 303.45">
  <defs>
    <clipPath id="clip-path">
      <rect id="Rectangle_1" data-name="Rectangle 1" width="383.133" height="303.45" fill="#ee1243"/>
    </clipPath>
  </defs>
  <g id="Group_2" data-name="Group 2" clip-path="url(#clip-path)">
    <path id="Path_8" data-name="Path 8" d="M383.134,279.73c-1.609,2.128-3.319,4.132-6.387,3.655-3.216-.5-4.305-2.966-5.242-5.671q-16.25-46.95-32.564-93.879c-.4-1.165-.863-2.311-1.469-3.927l-46.831,16.24c1.285,3.8,2.447,7.314,3.66,10.812q15,43.234,30.016,86.462c.2.588.411,1.175.6,1.769,1.214,3.9.022,6.789-3.264,7.913-3.235,1.108-5.916-.469-7.358-4.417-1.068-2.924-2.04-5.883-3.061-8.823q-12.75-36.695-25.5-73.389l-1.458-1.318c-.492,1.143-.685,2.617-1.525,3.373-5.091,4.586-10.243,9.113-15.55,13.444-3.068,2.5-6.586,2.025-8.55-.718-1.924-2.684-1.209-5.525,1.746-8.156,6.231-5.546,12.349-11.218,18.558-16.788a4.494,4.494,0,0,0,1.268-5.874c-1.967-4.431-1.9-8.689,1.79-12.441a3.14,3.14,0,0,0,.3-2.582c-.514-1.775-1.327-3.464-2.215-5.678-20.9,32.425-50.051,50.479-88.594,50.467-38.44-.012-67.547-17.921-88.529-50.49-.934,2.274-1.813,4.127-2.424,6.065a2.665,2.665,0,0,0,.473,2.25c3.7,3.74,3.7,7.992,1.786,12.444-.952,2.21-.653,3.707,1.017,5.593a117.268,117.268,0,0,0,132.184,30.716c1.573-.645,3.672-1.609,4.927-1.058a9.135,9.135,0,0,1,4.695,4.457c1.019,2.763-.742,5.2-3.529,6.115-8.381,2.763-16.663,6.246-25.281,7.8-45.149,8.128-84.347-3.791-117.158-36.084-.444-.437-.884-.881-1.356-1.286a4.593,4.593,0,0,0-.942-.425q-5.7,16.379-11.376,32.7-8.327,24-16.632,48.006-.306.882-.637,1.755c-1.487,3.9-4.187,5.469-7.425,4.319s-4.474-4.067-3.151-7.954c3.128-9.194,6.326-18.365,9.511-27.54q11.7-33.7,23.413-67.4c.4-1.168.727-2.364,1.244-4.058L45.637,179.894c-.57,1.4-1.076,2.5-1.472,3.642q-16.124,46.4-32.225,92.812c-.326.941-.579,1.91-.951,2.832-1.4,3.479-4.351,5.035-7.356,3.918-3.081-1.145-4.4-4.083-3.18-7.662q7.619-22.268,15.359-44.494c6.2-17.884,12.462-35.745,18.6-53.65,1.591-4.641,3.769-8.414,9.184-9.144.558-.076,1.1-.787,1.5-1.316.281-.372.252-.962.46-1.408,4.435-9.507,3.666-18.294-2.1-27.319-4.6-7.2-7.813-15.29-11.582-23.014C21.806,94.461,28.426,73.342,48.075,61.6c4.836-2.89,8.813-7.273,13.018-11.15,10.2-9.4,18.1-9.927,29.321-1.68,3.98-4.228,7.848-8.595,11.992-12.682a123.019,123.019,0,0,1,32.575-22.941c4.127-2.019,7.371-1.292,8.9,2,1.47,3.175.155,5.959-3.933,7.995a119.663,119.663,0,0,0-41.585,34.1c-1.7,2.188-1.925,3.9-.721,6.343,1.968,3.993,3.57,8.165,5.425,12.491,21.476-31.334,50.225-49.6,88.459-49.6,38.2,0,66.863,18.256,88.428,49.6,2.153-5,4.379-9.951,6.346-15,.282-.722-.484-2.085-1.1-2.893-19.57-25.539-45.237-40.846-77.071-45.691a113.2,113.2,0,0,0-41.265,1.4,12.586,12.586,0,0,1-4.063.375,5.11,5.11,0,0,1-4.844-5.27c-.091-3.161,1.787-5.026,4.858-5.716A124.606,124.606,0,0,1,199.207.29q55.461,3.975,91.324,46.479c.559.661,1.144,1.3,1.877,2.127.651-.454,1.253-.824,1.8-1.263,7.916-6.375,17.433-6.088,25.26.527,6.828,5.771,13.7,11.5,20.792,16.947a39.054,39.054,0,0,1,11.809,47.966c-5.464,11.744-11.5,23.218-17.059,34.921-.856,1.8-.8,4.221-.6,6.3a33.844,33.844,0,0,0,1.712,6.488c1.149,3.74,1.434,7.695,6.8,8.814,2.122.443,4.215,4.112,5.14,6.73,11.285,31.934,22.346,63.947,33.482,95.934.442,1.272,1.051,2.486,1.583,3.728ZM327.482,171.454c-1.635-5.72-3.057-11.239-4.815-16.649a11.336,11.336,0,0,1,.833-9.283c6.161-12.094,12.233-24.238,18.1-36.478a28.194,28.194,0,0,0-8.663-35.4c-6.76-5.039-13.248-10.461-19.649-15.955-6.265-5.377-11.332-4.427-14.572,3.111-3.982,9.265-7.987,18.521-11.877,27.826-1.258,3.009-3.071,5.227-6.487,5.329-3.257.1-5.176-1.934-6.593-4.683-1.932-3.745-4.017-7.411-6.014-11.072-9.053,3.52-11.908,9.867-8.469,18.55q12.791,32.295,25.656,64.561c2.883,7.255,5.759,14.513,8.694,21.909ZM89.152,183.1a8.674,8.674,0,0,0,.705-1.14c11.495-28.92,23.058-57.815,34.416-86.789,2.953-7.531-.848-14.258-9.116-16.845-1.8,3.337-3.669,6.7-5.428,10.118-1.553,3.019-3.386,5.7-7.237,5.508s-5.383-3.033-6.7-6.161c-3.96-9.409-7.941-18.811-12.047-28.157-2.624-5.971-8.036-7.068-12.986-2.786-1.414,1.223-2.716,2.576-4.132,3.8C62.58,64.136,58.9,68.255,54.361,70.927c-15.144,8.923-20,23.851-12.249,39.613,5.659,11.509,11.267,23.047,17.128,34.454a12.282,12.282,0,0,1,.941,10.312c-1.779,5.242-3.059,10.654-4.6,16.154L89.152,183.1M259.846,69.036C225.124,27.181,158,27.1,123.051,69.17c5.955,3.207,10.27,7.824,12.348,14.359,2.1,6.605.809,12.946-1.994,19.573a235.3,235.3,0,0,1,115.956-.116c-5.137-17.472-2.96-24.316,10.485-33.95m-68.464,37.641c-8.369.571-16.942,1.145-25.514,1.743-4.458.311-8.148,2.328-9.782,6.427-1.525,3.829-2.939,8.086-2.812,12.105a133.076,133.076,0,0,0,2.686,20.34c2.052,10.848,10.576,17.894,21.608,18.054,9.594.14,19.2.219,28.785-.065,9.072-.269,15.539-5,19.188-13.188a33.186,33.186,0,0,0,2.2-9.392c.833-6.774,2.053-13.611,1.813-20.376-.283-8.011-5.638-13.314-12.585-13.892-8.438-.7-16.9-1.17-25.591-1.756m-22.488,109.7c-2.5-11.734-5.042-22.633-7.089-33.624-1.224-6.573-2.352-12.922-8.626-16.828-1.311-.815-2.3-2.677-3.612-2.879-12.542-1.925-25.124-3.6-37.485-5.313-3.456,4.724-3.961,9.189-.5,13.855,1.478,1.99,2.488,4.319,3.861,6.4,12.776,19.3,30.381,31.908,53.449,38.394m101.961-58.592c-12.294,1.7-24.751,3.4-37.2,5.157a4.009,4.009,0,0,0-1.956.862c-7.783,6.673-8.078,7.22-10.2,17.639-.647,3.172-1.34,6.334-2,9.5-1.727,8.247-3.449,16.495-5.145,24.61.462.266.57.384.66.371a10.018,10.018,0,0,0,1.445-.265c23.982-7.072,42-21.579,54.533-43.2,2.894-4.992,4.122-9.464-.13-14.675m-98.907,18.739c2.864,13.61,5.6,26.875,8.559,40.09.211.944,2.061,2.1,3.2,2.159,5.09.244,10.2.114,15.3.139,2.335.011,3.436-.925,3.887-3.425,1.211-6.728,2.821-13.384,4.232-20.076,1.315-6.238,2.579-12.486,3.9-18.887Zm66.185-25.584,28.957-4c-3.958-9.99-7.738-19.554-11.556-29.1a2.379,2.379,0,0,0-1.132-1.353c-5.122-1.554-10.272-3.013-16.181-4.72,6.009,13.608.729,26.126-.088,39.173m-93.377-39.075c-5.442,1.5-9.925,2.549-14.257,4.039a6.53,6.53,0,0,0-3.44,3.268c-2.9,6.742-5.519,13.6-8.217,20.428-.938,2.373-1.817,4.77-2.8,7.364l28.783,3.945c-.732-13.065-6.1-25.582-.068-39.044" fill="#ee1243"/>
    <path id="Path_9" data-name="Path 9" d="M191.259,151.788a17.195,17.195,0,0,1,.3-34.388,17.195,17.195,0,1,1-.3,34.388m.534-23.13a6.121,6.121,0,0,0-6.239,5.695,5.961,5.961,0,0,0,11.907.577,6.128,6.128,0,0,0-5.668-6.272" fill="#ee1243"/>
  </g>
</svg>
