<svg id="Group_5" data-name="Group 5" xmlns="http://www.w3.org/2000/svg" xmlns:xlink="http://www.w3.org/1999/xlink" width="383.266" height="255.659" viewBox="0 0 383.266 255.659">
  <defs>
    <clipPath id="clip-path">
      <rect id="Rectangle_4" data-name="Rectangle 4" width="383.266" height="255.659" fill="none"/>
    </clipPath>
  </defs>
  <g id="Group_4" data-name="Group 4" clip-path="url(#clip-path)">
    <path id="Path_10" data-name="Path 10" d="M0,112.841c4.3-6.376,8.673-12.712,12.886-19.149A8.3,8.3,0,0,1,20.631,89.5c7.6.157,15.217.005,22.825.064,5.257.041,7.535,2.272,7.568,7.52.067,10.851.022,21.7.024,32.555v4.307H63.6c.072-1.314.2-2.621.206-3.928q.025-15.342.011-30.685c.005-8.1,1.72-9.784,9.94-9.786,9.355,0,18.711-.085,28.064.058a5.291,5.291,0,0,0,5.156-2.7c6.668-10.235,13.624-20.283,20.194-30.579,2.441-3.827,5.408-5.3,9.878-5.2,10.223.233,20.455.074,30.683.074H172.1V38.41h-4.146q-18.711,0-37.421-.007c-7.13-.013-9.2-2.072-9.217-9.072q-.021-10.29,0-20.581c.023-6.345,2.255-8.724,8.457-8.728q61.931-.044,123.861,0c5.86,0,8.239,2.4,8.283,8.142q.084,11.039,0,22.078c-.042,5.788-2.344,8.11-8.25,8.142-12.6.067-25.2.022-37.794.023h-4.742V51.2h4.918c10.353,0,20.708.113,31.058-.056a9.181,9.181,0,0,1,8.628,4.689c6.781,10.458,13.8,20.762,20.623,31.193a5.036,5.036,0,0,0,4.843,2.574c11.848-.116,23.7-.061,35.548-.051,7.013.006,8.935,1.892,8.942,8.792q.02,18.9,0,37.795v4.215h12.782q0-1.962,0-3.923c0-8.607-.04-17.214.015-25.82.038-6.077,2.313-8.271,8.435-8.3,5.238-.023,10.5-.3,15.706.126a13.081,13.081,0,0,1,6.927,2.837,82.737,82.737,0,0,1,10.563,10.571,12.572,12.572,0,0,1,2.991,7.238q.291,49.394,0,98.788a12.591,12.591,0,0,1-2.942,7.258A79.606,79.606,0,0,1,369.622,239.7a13.952,13.952,0,0,1-7.267,2.992,153.138,153.138,0,0,1-15.705.118c-5.781-.094-8.124-2.453-8.149-8.276-.054-12.723-.017-25.446-.017-38.169,0-1.361,0-2.722,0-4.408H325.7v4.028q0,25.446,0,50.891c-.006,6.608-2.1,8.728-8.739,8.73q-90.371.022-180.74.05a9.4,9.4,0,0,1-8.659-4.7c-6.792-10.451-13.811-20.755-20.635-31.185a5.071,5.071,0,0,0-4.857-2.6c-9.852.112-19.707.079-29.561.035-6.55-.029-8.66-2.187-8.677-8.831-.029-11.719-.008-23.439-.008-35.477H51.048v3.99c0,10.727.028,21.454-.013,32.181-.023,5.947-2.137,8.072-8.143,8.129q-11.038.1-22.078,0c-5.846-.065-8.045-2.358-8.055-8.291-.028-16.714.064-33.429-.1-50.142a13.432,13.432,0,0,0-2.015-6.5C7.283,146.746,3.573,141.438,0,136.046V112.841M287.185,242.829V102.31c-3.479,0-6.718-.177-9.931.044-4.193.288-7.01-1.331-9.3-4.878-6.686-10.37-13.659-20.555-20.412-30.883a5.057,5.057,0,0,0-4.8-2.652q-51.08.112-102.159,0a5.04,5.04,0,0,0-4.837,2.582C130.042,75.306,124.2,84,118.366,92.691c-7.12,10.616-4.936,9.6-17.918,9.617-7.817.01-15.635,0-23.615,0V204.416h4.239c8.233,0,16.47.153,24.7-.061,4.478-.116,7.406,1.527,9.831,5.335,6.36,9.987,13.166,19.688,19.563,29.652a6.821,6.821,0,0,0,6.61,3.559q70.538-.154,141.077-.072Zm64.292-13.071c5.634.591,10.926,1.241,14.531-4.244.669-1.02,1.945-1.653,2.566-2.689.834-1.391,1.842-3,1.847-4.518q.161-45.8.063-91.6a6.292,6.292,0,0,0-.422-2.885c-3.736-6.869-10.062-9.71-18.585-8.348Zm-51.016,12.859h12.281V102.493H300.461ZM38.071,102.31a23.87,23.87,0,0,1-4.178-.034c-8.412-1.582-13.963,1.582-17.736,9.322-1.757,3.6-3.382,6.771-3.578,10.994-.316,6.821,1.114,12.666,5.579,17.879a36.051,36.051,0,0,1,4.944,7.457,18.777,18.777,0,0,1,2.3,7.609c.214,14.824.1,29.654.1,44.481v4.108H38.071ZM249.012,13.155H134.367V25.286H249.012ZM338.28,153.568H325.97v25.1h12.31ZM197.827,38.679H185.561V50.932h12.266ZM51.251,159.541H63.5V147.293H51.251Z"/>
    <path id="Path_11" data-name="Path 11" d="M212.394,140.561c9.873,0,19.211.019,28.548-.011,3.033-.009,5.8.57,7.308,3.507,1.894,3.678.135,6.387-2.557,8.849q-21.111,19.311-42.178,38.669c-10.475,9.6-20.926,19.236-31.466,28.769a12.376,12.376,0,0,1-5.018,3.016c-4.4,1.049-7.956-2.953-6.969-7.97,1.729-8.792,3.774-17.522,5.7-26.275,1.655-7.515,3.33-15.026,5.108-23.041-5.226,0-10.047,0-14.867,0q-7.48,0-14.961-.015a6.3,6.3,0,0,1-6.275-3.864c-1.272-2.9-.264-5.338,1.814-7.46.7-.712,1.447-1.372,2.182-2.046q36.114-33.109,72.23-66.214c.46-.422.907-.858,1.392-1.248,2.427-1.95,5.1-2.746,7.954-1.123,2.9,1.649,3.526,4.365,2.858,7.438q-3.215,14.778-6.492,29.542c-1.391,6.309-2.792,12.615-4.312,19.478M177.04,197.443l.754.387,48.524-44.514c-7.278,0-13.46.009-19.643,0-7.086-.013-9.56-3.031-8.047-9.868,1.56-7.051,3.189-14.087,4.748-21.138.946-4.28,1.817-8.576,2.721-12.865l-.8-.389L157.03,153.314c7.155,0,13.136-.007,19.116,0,7.734.011,10.006,2.955,8.295,10.631q-3.732,16.741-7.4,33.5"/>
    <rect id="Rectangle_2" data-name="Rectangle 2" width="12.256" height="50.798" transform="translate(89.647 140.662)"/>
    <rect id="Rectangle_3" data-name="Rectangle 3" width="12.292" height="12.422" transform="translate(89.703 115.216)"/>
  </g>
</svg>
