<svg id="Group_12" data-name="Group 12" xmlns="http://www.w3.org/2000/svg" xmlns:xlink="http://www.w3.org/1999/xlink" width="340.771" height="408.903" viewBox="0 0 340.771 408.903">
  <defs>
    <clipPath id="clip-path">
      <rect id="Rectangle_6" data-name="Rectangle 6" width="340.771" height="408.903" fill="#ee1243"/>
    </clipPath>
  </defs>
  <g id="Group_11" data-name="Group 11" clip-path="url(#clip-path)">
    <path id="Path_10" data-name="Path 10" d="M6.672,408.9C1.744,406.871-.165,403.2.011,397.9c.266-7.975-.169-15.978.21-23.945.87-18.294,13.464-31.243,31.657-32.966.514-.049,1.023-.173,2.156-.369v-5.4q0-148.9-.021-297.809c-.005-12.251,3.678-22.694,13.7-30.38A33.946,33.946,0,0,1,68.909.067Q153.356-.014,237.8.089C258.385.145,272.621,15.14,272.629,36.2q.039,106.988.01,213.975v5.4c2.33,0,4.525-.011,6.721,0,16.331.093,26.964,10.471,27.394,26.821.119,4.521-.005,9.048.029,13.572.051,6.726,3.371,10.8,8.635,10.656,5.18-.14,8.327-4.089,8.33-10.619q.026-49.5.008-99V153.4c-7.508-.5-14.226-2.324-20.048-6.693-9.658-7.247-13.958-17.122-14.074-28.985-.072-7.318.018-14.638-.027-21.957a12.674,12.674,0,0,1,4.057-9.579c8.814-8.665,17.511-17.448,26.712-26.643-4.531-4.442-8.889-8.67-13.2-12.947-4.911-4.875-9.875-9.7-14.632-14.725-3.267-3.449-3.578-7.511-1.29-10.906a7.962,7.962,0,0,1,9.407-3.29,14.567,14.567,0,0,1,4.882,3.29c10.513,10.377,20.91,20.872,31.4,31.267a12.262,12.262,0,0,1,3.822,9.252q-.067,117.766-.039,235.533c0,11.355-4.982,19.895-15.359,24.44-9.7,4.251-19.027,2.65-27.133-4.386-6.261-5.434-8.542-12.622-8.613-20.67-.04-4.524.04-9.05-.022-13.573-.1-7.012-3.211-10.09-10.313-10.259-2.093-.05-4.189-.008-6.458-.008v67.451c4.841,1.384,9.8,2.107,14.117,4.165,13.487,6.428,19.6,17.72,19.806,32.4.1,7.184-.058,14.372.044,21.557.074,5.23-1.889,8.985-7.006,10.764Zm248.984-68.278v-4.4q0-149.73-.008-299.459c0-12.987-6.734-19.741-19.687-19.745q-82.665-.031-165.329,0C57.878,17.033,51.2,23.743,51.2,36.508q-.022,149.929,0,299.858c0,1.395.155,2.79.242,4.259ZM17.122,391.649H289.376c0-6.771.506-13.319-.124-19.756-.844-8.618-8.6-14.092-18.838-14.094q-116.992-.012-233.985,0c-1.064,0-2.132-.011-3.193.06a16.848,16.848,0,0,0-16.055,15.9c-.308,5.831-.059,11.692-.059,17.893M323.582,80.093c-5.725,5.835-10.755,10.9-15.68,16.058a4.477,4.477,0,0,0-1.07,2.824c-.043,7.311-.221,14.637.155,21.932.448,8.674,7.588,14.98,16.6,15.059Z" fill="#ee1243"/>
    <path id="Path_11" data-name="Path 11" d="M153.378,153.453q-36.914,0-73.828,0c-8.633,0-11.375-2.795-11.376-11.55q-.008-48.08,0-96.16c0-8.762,2.734-11.568,11.359-11.57q73.827-.016,147.656,0c8.524,0,11.305,2.738,11.309,11.151q.025,48.48,0,96.959c0,8.447-2.773,11.167-11.292,11.17q-36.915.015-73.829,0M85.367,136.23H221.3V51.365H85.367Z" fill="#ee1243"/>
  </g>
</svg>
