<svg id="Group_5" data-name="Group 5" xmlns="http://www.w3.org/2000/svg" xmlns:xlink="http://www.w3.org/1999/xlink" width="372.427" height="372.582" viewBox="0 0 372.427 372.582">
  <defs>
    <clipPath id="clip-path">
      <rect id="Rectangle_2" data-name="Rectangle 2" width="372.427" height="372.582" fill="#ee1243"/>
    </clipPath>
  </defs>
  <g id="Group_4" data-name="Group 4" clip-path="url(#clip-path)">
    <path id="Path_10" data-name="Path 10" d="M0,186.13A186.451,186.451,0,0,1,187.4,0c101.787.34,185.343,84.441,185.028,186.234C372.106,289.7,288.353,373.069,185.221,372.58,83.017,372.094-.367,288.157,0,186.13M185.569,361.549c96.129.289,174.54-76.623,175.7-172.267,1.2-99.175-76.353-177.559-175.34-178.255-94.7-.666-174.253,77.95-174.9,172.837C10.358,282.05,87.814,360.9,185.569,361.549" fill="#ee1243"/>
    <path id="Path_11" data-name="Path 11" d="M112.947,187v4.235c0,13.854.024,27.709-.019,41.564-.013,3.937-2.1,6.27-5.369,6.291-3.236.021-5.293-2.322-5.452-6.238-.04-1-.013-2-.013-3V194.284q0-31.266.008-62.533a21.465,21.465,0,0,1,.2-4.1,4.893,4.893,0,0,1,5.282-4.292,5.01,5.01,0,0,1,5.228,4.4,16.617,16.617,0,0,1,.13,3.36q.01,20.032,0,40.066v4.307h64.961c.061-1.214.181-2.522.182-3.83q.021-19.845.01-39.691c0-1-.051-2,.031-3,.3-3.571,2.517-5.742,5.7-5.637,3,.1,5.089,2.261,5.284,5.657.121,2.115.035,4.243.036,6.364q0,17.975,0,35.948v4.233H254.3v-3.95q0-20.032,0-40.066a21.8,21.8,0,0,1,.074-3.365c.472-2.961,2.212-4.727,5.275-4.795a4.891,4.891,0,0,1,5.322,4.252,22.53,22.53,0,0,1,.268,4.468q.02,49.053.01,98.106c0,.375,0,.749,0,1.123-.042,5.164-1.885,7.779-5.49,7.79-3.643.011-5.455-2.544-5.458-7.74q-.009-20.032,0-40.066v-4.31H189.151c0,1.246,0,2.551,0,3.856,0,13.73.127,27.462-.131,41.187a8.89,8.89,0,0,1-2.917,6.27c-3.623,2.641-7.948-.6-7.978-5.77-.073-12.606-.025-25.213-.026-37.82V187Z" fill="#ee1243"/>
    <path id="Path_12" data-name="Path 12" d="M271.263,279.449c2.815,4.549,5.564,8.963,8.285,13.395,2.67,4.347,2.416,7.577-.705,9.451s-5.891.675-8.689-3.826c-2.369-3.81-4.675-7.66-7.092-11.438-3.112-4.864-7.527-7.052-13.836-6.238,0,5.586.009,11.157-.006,16.728a27.094,27.094,0,0,1-.163,4.851,4.975,4.975,0,0,1-5.266,4.36,5.072,5.072,0,0,1-5.25-4.4,7.2,7.2,0,0,1-.13-1.489c0-15.841-.046-31.683.032-47.524.019-3.873,1.9-5.745,5.8-5.8,7.229-.112,14.467-.173,21.691.057a16.015,16.015,0,0,1,15.054,11.894,16.533,16.533,0,0,1-7,18.286c-.821.539-1.666,1.042-2.719,1.7M249.2,269.768c5.6,0,10.794.121,15.978-.045a5.267,5.267,0,0,0,5.408-5.138c.288-3.109-1.4-5.683-4.435-5.911-5.6-.42-11.26-.12-16.951-.12Z" fill="#ee1243"/>
    <path id="Path_13" data-name="Path 13" d="M105.2,292.541c4.971,0,9.943-.055,14.913.032a17.19,17.19,0,0,1,4.751.709,5.372,5.372,0,0,1-1.31,10.464c-9.84.151-19.688.212-29.526-.01a5.225,5.225,0,0,1-4.421-8.13,146.7,146.7,0,0,1,11.382-15.537c2.965-3.645,6.561-6.77,9.683-10.3a10.939,10.939,0,0,0,2.09-4.318c1.187-4.382.011-6.984-3.283-7.831-4.27-1.1-8.457,1.149-9.445,5.1-.181.723-.22,1.48-.365,2.213-.662,3.347-2.975,5.359-5.838,5.1-3.051-.28-4.994-2.76-4.97-6.341.071-10.3,10-18.511,20.723-17.137,11.365,1.456,17.534,11.482,13.159,23.019-1.952,5.147-5.963,9.62-9.508,14.02-2.439,3.026-5.686,5.4-8.571,8.068q.267.442.536.885" fill="#ee1243"/>
    <path id="Path_14" data-name="Path 14" d="M256.051,75.193c12.1,1.1,18.537,5.724,21.043,14.909,2.567,9.412-1.743,18.808-10.257,22.363a17.8,17.8,0,0,1-22.322-7.588c-2.2-3.919-1.776-7.093,1.181-8.855,2.983-1.778,5.794-.706,8.146,3.233,1.867,3.127,4.58,4.094,7.967,3.217,3.321-.861,4.958-3.277,5.1-6.566a8.515,8.515,0,0,0-4.609-8.36,7.974,7.974,0,0,0-9.142.527c-2.441,1.863-4.825,3.219-7.788,1.3s-2.642-4.819-2.087-7.715q1.686-8.8,3.443-17.588c.891-4.411,2.463-5.771,6.79-5.8q10.276-.068,20.555,0c3.91.032,6.317,2.086,6.435,5.282.124,3.371-2.315,5.607-6.417,5.7-3.86.085-7.724,0-11.586.026-6.813.044-5.287-.578-6.456,5.914" fill="#ee1243"/>
    <path id="Path_15" data-name="Path 15" d="M196.259,281.473c4.737.928,11.384-1.246,11.261,5.949-.118,6.9-6.428,4.906-11.269,5.485,0,2.492.056,4.937-.012,7.38-.115,4.1-2.311,6.608-5.6,6.5-3.171-.107-5.163-2.542-5.25-6.446-.05-2.241-.069-4.483-.109-6.724a7.166,7.166,0,0,0-.287-.954c-4.345,0-8.9-.011-13.446,0-2.994.01-6.861.552-7.7-2.914-.809-3.353-1.09-7.95.6-10.592,6.767-10.588,14.27-20.719,21.827-30.774,1.115-1.483,4.036-2.376,6.034-2.242,2.82.19,3.918,2.741,3.924,5.511q.032,12.714.025,25.429c0,1.358,0,2.716,0,4.389m-11.052-12.827-9.249,12.934h9.249Z" fill="#ee1243"/>
    <path id="Path_16" data-name="Path 16" d="M194.654,78.522c6.009,7.159,7.039,15.594,2.624,22.821-3.448,5.645-8.624,8.091-15.115,7.766-6.791-.341-12.292-3.117-15.66-9.224-1.5-2.711-1.088-5.456,1.634-7.235,2.643-1.727,5.475-1.4,7.3,1.188A9.376,9.376,0,0,0,184,98.12a5.043,5.043,0,0,0,5.034-3.689c1.715-4.9.129-7.433-5.038-7.866-1.357-.113-2.737.075-4.1.022-3.119-.122-5.263-1.582-5.695-4.8s1.274-5.123,4.22-6.17c1.969-.7,4.131-1.242,5.736-2.469,1.286-.984,2.617-2.941,2.527-4.378-.076-1.209-2.094-3.118-3.388-3.238-1.976-.183-4.078.883-6.1,1.494-.259.079-.373.619-.566.939-2.26,3.765-4.917,4.793-7.908,3.064-2.952-1.706-3.533-4.733-1.631-8.486,3.676-7.25,12.154-10.285,20.556-7.358,7.021,2.446,11.275,9.369,9.783,16.436-.5,2.36-1.8,4.549-2.768,6.9" fill="#ee1243"/>
    <path id="Path_17" data-name="Path 17" d="M112.943,84.593c0,6.72.034,13.441-.012,20.161-.027,3.91-2.04,6.347-5.194,6.489-3.266.147-5.6-2.394-5.616-6.449q-.081-20.16.006-40.321c.019-4.013,2.072-6.233,5.381-6.246,3.256-.013,5.381,2.323,5.417,6.2.062,6.72.017,13.441.018,20.161" fill="#ee1243"/>
  </g>
</svg>
