<svg id="Group_4" data-name="Group 4" xmlns="http://www.w3.org/2000/svg" xmlns:xlink="http://www.w3.org/1999/xlink" width="383.351" height="263.572" viewBox="0 0 383.351 263.572">
  <defs>
    <clipPath id="clip-path">
      <rect id="Rectangle_2" data-name="Rectangle 2" width="383.351" height="263.572" fill="#ee1243"/>
    </clipPath>
  </defs>
  <g id="Group_3" data-name="Group 3" clip-path="url(#clip-path)">
    <path id="Path_3" data-name="Path 3" d="M383.351,249.328c-2.578,6.865-6.66,12.206-14.3,13.773a26.215,26.215,0,0,1-5.2.43q-22.449.048-44.9.013c-11.952-.018-19.392-7.438-19.438-19.332-.012-3.356,0-6.711,0-10.334H83.936c0,3.529.019,7.1,0,10.663-.074,11.432-7.586,18.97-19.022,19q-23.012.057-46.022,0C7.731,263.5.125,255.874.113,244.683c-.034-33.425-.287-66.853.1-100.273.207-18.007,7.845-33,21.543-44.714C27.91,94.432,34.4,89.555,40.717,84.484c.837-.671,1.585-1.451,2.762-2.539-6.828-1.392-13.13-2.658-19.424-3.966-4.43-.921-5.94-2.707-5.978-7.161-.046-5.362-.068-10.726.008-16.088.062-4.436,2.279-6.7,6.693-6.735q14.217-.106,28.436,0c4.437.031,6.618,2.277,6.761,6.682.044,1.37.008,2.743.009,4.115v5.135c1.63-2.057,2.985-3.3,3.769-4.833,5.265-10.3,10.586-20.571,15.552-31.013C88.047,9.7,102.45.158,122.775.1Q191.994-.081,261.213.12C281.078.2,295.258,9.7,303.908,27.543c4.777,9.852,9.517,19.722,14.436,29.5a18.629,18.629,0,0,0,5.129,5.931c0-2.821-.067-5.644.016-8.462.124-4.2,2.332-6.48,6.534-6.514q14.4-.12,28.81,0c4.193.034,6.454,2.322,6.525,6.52.1,5.61.031,11.224.021,16.836-.006,3.656-1.872,5.822-5.406,6.552-6.456,1.333-12.92,2.628-19.929,4.051,1.046.972,1.772,1.735,2.585,2.39,5.73,4.613,11.423,9.275,17.233,13.786,12.618,9.8,19.7,22.849,22.8,38.3a17.829,17.829,0,0,0,.694,2.107Zm-90.312-115.3c-1.41,1.7-2.657,3.088-3.785,4.572-3.133,4.123-7.168,5.37-12.367,5.3-19.831-.278-39.669-.02-59.5-.2-3.644-.032-6.318.829-8.786,3.569-3.752,4.165-7.843,8.03-11.864,11.947-3.558,3.466-6.489,3.45-10.047-.038-4.364-4.279-8.729-8.563-12.936-12.994a7.3,7.3,0,0,0-5.856-2.453c-21.331.091-42.663.012-63.994.1-3.1.012-5.624-.748-7.605-3.152-1.879-2.282-3.776-4.55-5.887-7.091-2.49,2.6-4.16,4.11-5.562,5.843-2.735,3.381-6.1,4.528-10.476,4.442-12.594-.247-25.2-.185-37.8-.053-8.421.088-16.744.127-24.031-7.035v24.97c9.731,0,19.445-.134,29.154.039a36.933,36.933,0,0,1,24.467,9.744,5.926,5.926,0,0,1,.909,8.374,5.811,5.811,0,0,1-8.636.635c-8.247-7.322-18.043-7.35-28.4-6.571,0,1.278,0,2.376,0,3.473-.03,9.7,4.459,14.23,14.125,14.242,4.865.006,9.73-.029,14.6.011,4.434.037,7.119,2.275,7.178,5.885.06,3.626-2.642,6.028-7,6.067-5.738.051-11.478.1-17.214-.012A23.946,23.946,0,0,1,18.079,180c-.044-2.055-.006-4.111-.006-6.063H12.079c0,9.912-.06,19.617.016,29.322.082,10.668,7.775,18.277,18.52,18.361,7.983.063,15.967.039,23.951.005,5.976-.025,12.594,1.45,17.743-.648,5.016-2.043,8.524-7.783,12.7-11.892a38.007,38.007,0,0,1,27.571-11.4q77.655-.018,155.308,0a37.951,37.951,0,0,1,27.567,11.409c3.552,3.5,6.968,7.153,10.648,10.515a7.415,7.415,0,0,0,4.459,1.936c14.094.145,28.191.137,42.287.069,10.737-.053,18.411-7.691,18.5-18.377.079-8.857.026-17.714.007-26.571,0-.947-.169-1.894-.251-2.744h-5.731c0,2.034.026,3.878-.005,5.721a23.956,23.956,0,0,1-24.054,24.007c-5.612.075-11.227.056-16.84,0-4.348-.042-7.043-2.455-6.971-6.088.069-3.506,2.673-5.8,6.822-5.857,4.989-.063,9.979-.011,14.969-.018,10.689-.014,16.28-7.373,13.49-17.964-1.071,0-2.191.067-3.3-.01-9.261-.642-17.828.839-25.116,7.269-2.436,2.149-6.035,1.35-8.012-1.095a5.888,5.888,0,0,1,.659-8.113c5.214-4.9,11.426-8.463,18.463-9.156,9.146-.9,18.407-.65,27.619-.862,2.69-.062,5.383-.009,7.612-.009V137.341c-7.428,5.4-10.665,6.439-19.393,6.442-12.475,0-24.973-.463-37.415.17-7.778.4-13.908-1.348-18.5-7.74a20.906,20.906,0,0,0-2.371-2.186M45.118,97.8c6.977,2.81,14.422,6.357,22.208,8.826,13.768,4.366,25.607,11.356,34.635,22.766,1.525,1.928,3.387,2.481,5.828,2.471,21.323-.09,42.647-.011,63.97-.1a9.6,9.6,0,0,1,7.628,3.124c3.9,4.167,7.957,8.185,12.232,12.556,4.3-4.326,8.335-8.192,12.14-12.267a10.346,10.346,0,0,1,8.261-3.423q31.984.163,63.97-.037a8.48,8.48,0,0,0,5.121-2.116c3.977-3.586,7.5-7.682,11.508-11.226a31.5,31.5,0,0,1,8.284-5.418c10.073-4.295,20.3-8.234,30.46-12.321,2.6-1.044,5.174-2.131,7.119-2.934-7.357-7.617-14.73-15-21.769-22.7-1.93-2.11-3.618-3.146-6.528-3.143q-118.4.12-236.8.064a8.39,8.39,0,0,0-2.233.04,6.38,6.38,0,0,0-2.835,1.3c-7.723,8.075-15.366,16.226-23.2,24.534M305.507,59.747c-4.516-9.816-8.639-19.533-13.4-28.928-6.084-12.012-16.2-18.635-29.673-18.7-47.142-.211-94.286-.141-141.428-.041C109,12.108,99.177,17.49,93.219,27.609s-10.236,21.2-15.383,32.138ZM290.565,221.473c-5.8-7.17-12.577-11.731-21.375-11.752q-78.937-.186-157.874,0c-8.87.021-15.666,4.571-21.366,11.752ZM71.937,233.608H67.446c-12.209,0-24.419-.026-36.628.011a30.181,30.181,0,0,1-16-4.333c-.777-.468-1.631-.808-2.732-1.345,0,6.042-.076,11.645.026,17.245.07,3.824,2.26,6.3,5.926,6.326q23.919.155,47.84.01a5.72,5.72,0,0,0,6.022-5.846c.165-3.841.038-7.695.038-12.068m239.574,0c0,4.343-.121,8.192.036,12.03a5.712,5.712,0,0,0,5.982,5.882q23.914.135,47.831,0c3.282-.016,5.675-1.943,5.848-5.173.322-6.022.092-12.073.092-18.9-8.155,6.337-17.09,6.314-26.114,6.193-11.065-.149-22.134-.036-33.675-.036M81.316,125.4c-1.462-.661-2.658-1.258-3.894-1.752q-17.34-6.93-34.69-13.831c-10.916-4.362-12.055-4.078-19.446,5.163a48.252,48.252,0,0,0-2.827,3.952c-2.539,3.931-1.957,8.054,2.14,10.518a16.907,16.907,0,0,0,8.068,2.25c12.841.228,25.7-.217,38.528.254,5.46.2,8.948-1.792,12.121-6.554m220.962-.176c3.749,5.813,5.068,6.579,10.894,6.579,12.968,0,25.937.065,38.9-.058a19.409,19.409,0,0,0,7.251-1.308c5.081-2.157,6.68-7.5,3.372-11.791-3.016-3.912-6.675-7.328-10.058-10.956-1.489-1.6-3.05-1.506-5.036-.681-9.2,3.82-18.463,7.468-27.706,11.172-5.846,2.342-11.695,4.675-17.621,7.043m33.336-55.045a2.7,2.7,0,0,0,.838.179c3.765-.719,7.524-1.476,11.29-2.191,5.807-1.1,5.813-1.093,5.639-6.885a5.923,5.923,0,0,0-.288-1.144H335.614ZM47.83,60.158H30.276v6.871L47.83,70.522Z" fill="#ee1243"/>
  </g>
</svg>
