<svg xmlns="http://www.w3.org/2000/svg" width="477.811" height="477.87" viewBox="0 0 477.811 477.87">
  <g id="Group_1" data-name="Group 1" transform="translate(0.01)">
    <path id="Path_1" data-name="Path 1" d="M0,467.55Q83.76,339.885,167.48,212.21a10.5,10.5,0,0,1,9.68-5.16q61.815.135,123.64,0a10.488,10.488,0,0,1,9.62,5.27q82.575,125.94,165.23,251.81c2,3.05,3.09,6.14,1.09,9.57-1.95,3.35-5.07,4.14-8.75,4.14q-229.08-.06-458.17.03a10.349,10.349,0,0,1-9.83-5.66v-4.67ZM230.59,223.01c-7,0-13.82.23-20.62-.09-3.63-.17-5.44,1.05-7.13,4.29Q142.825,342.26,82.6,457.18c-.73,1.4-1.37,2.86-2.08,4.35H231.06V430.31H246.9v31.35H397.36c-.93-1.9-1.63-3.42-2.4-4.9q-28.605-54.705-57.22-109.4-31.545-60.27-63.16-120.5c-.78-1.48-2.27-3.6-3.51-3.65-7.89-.33-15.79-.17-23.85-.17-.24,2.8-.45,5.17-.66,7.53H231.23c-.22-2.6-.41-4.87-.64-7.55Zm60.48.36c.84,1.76,1.52,3.29,2.3,4.77,39.02,74.57,78.19,149.07,116.89,223.8,3.93,7.58,7.9,11.13,16.72,10.19,8.98-.96,18.13-.21,27.94-.21-1.35-2.18-2.2-3.62-3.11-5.01Q376.54,342.115,301.37,227.25c-2.75-4.22-5.75-4.77-10.3-3.87ZM22.97,461.92c11.86,0,23-.18,34.12.1,3.79.09,5.69-1.18,7.42-4.5Q124.54,342.5,184.78,227.59c.69-1.33,1.3-2.7,1.97-4.11-5.05-1.48-7.83.17-10.56,4.35Q101.22,342.55,25.92,457.06c-.9,1.37-1.71,2.81-2.95,4.87Z" fill="#ee1243"/>
    <path id="Path_2" data-name="Path 2" d="M247.31,0c3.14.74,6.29,1.42,9.41,2.22a71.912,71.912,0,0,1,53.86,67.14c.32,9.68-2.45,18.73-6.12,27.53-10.69,25.59-26.39,48.16-42.84,70.24-5.11,6.85-10.45,13.54-15.86,20.15-4.27,5.22-9.48,5.22-13.73,0-20.51-25.25-39.77-51.36-54.33-80.62-1.86-3.75-3.39-7.66-5.09-11.49C155.12,55.63,183.03,8.25,227.02.96A33.452,33.452,0,0,0,230.51,0h16.8Zm-8.46,170.64c3.67-4.8,6.93-8.91,10.04-13.13,14.76-20.02,29.01-40.37,39.48-63.08,5.4-11.72,8.01-23.63,4.59-36.6-8.17-30.96-40.87-48.93-71.11-39.25-27.8,8.9-47.99,42.3-33.7,73.07,13.21,28.45,31.45,53.45,50.71,79Z" fill="#ee1243"/>
    <path id="Path_3" data-name="Path 3" d="M231.25,366.63h15.29v39.22H231.25Z" fill="#ee1243"/>
    <path id="Path_4" data-name="Path 4" d="M246.62,342.26H231.25v-31.3h15.37Z" fill="#ee1243"/>
    <path id="Path_5" data-name="Path 5" d="M231.33,270.91h15.25v23.5H231.33Z" fill="#ee1243"/>
    <path id="Path_6" data-name="Path 6" d="M231.2,239.14h15.31v15.34H231.2Z" fill="#ee1243"/>
    <path id="Path_7" data-name="Path 7" d="M238.95,95.46A31.82,31.82,0,1,1,270.7,63.78a31.625,31.625,0,0,1-31.75,31.68Zm15.84-31.69a15.881,15.881,0,0,0-31.76-.36,15.876,15.876,0,1,0,31.75.37Z" fill="#ee1243"/>
  </g>
</svg>
