<svg id="Group_6" data-name="Group 6" xmlns="http://www.w3.org/2000/svg" xmlns:xlink="http://www.w3.org/1999/xlink" width="359.234" height="137.713" viewBox="0 0 359.234 137.713">
  <defs>
    <clipPath id="clip-path">
      <rect id="Rectangle_3" data-name="Rectangle 3" width="359.234" height="137.713" fill="#ee1243"/>
    </clipPath>
  </defs>
  <g id="Group_5" data-name="Group 5" clip-path="url(#clip-path)">
    <path id="Path_4" data-name="Path 4" d="M347.5,89.849h11.738v12.017c-4.166,0-8.261-.188-12.324.091a11.338,11.338,0,0,0-4.848,1.958,14.453,14.453,0,0,0-3.2,3.126c-4.032,4.823-8.543,8.5-15.512,6.519-5.064,16.06-15.417,25.216-32.322,24-14.26-1.025-22.949-9.8-26.944-23.547H107.532c-4.859,15.458-15.056,24.262-31.83,23.671-12.82-.451-22.4-9.044-27.226-23.521-.228-.089-.472-.28-.683-.249-11.218,1.615-20.949-3.094-30.83-7.2-4.026-1.673-8.07-3.306-12.147-4.849C1.47,100.6-.026,98.323,0,94.725Q.124,77.882.006,61.036c-.024-3.788,1.649-5.992,5.241-7.159Q20.7,48.852,36.071,43.552a19.708,19.708,0,0,0,5.523-2.961c16.3-12.571,32.475-25.3,48.858-37.763A13.874,13.874,0,0,1,98.229.16C130.552-.018,162.876.1,195.2,0a26.984,26.984,0,0,1,18.772,6.987c12.241,10.832,24.516,21.627,36.95,32.235a13.7,13.7,0,0,0,7.193,3.16q30.761,2.651,61.568,4.764c17,1.162,27.774,12.394,27.811,29.449.009,4.236,0,8.472,0,13.253M239.729,101.694c-.265-16.084-.509-31.912,3.864-47.458H161.975v47.458Zm-90.092-47.48H89.894c0,8.227-.09,16.195.1,24.155a4.774,4.774,0,0,0,2.257,3.2,29.854,29.854,0,0,1,12.073,12.416c1.254,2.515,2.176,5.195,3.2,7.68h42.111Zm-71.912-.226c-11.659,0-23.106-.007-34.552.022a6.07,6.07,0,0,0-1.788.489c-8.981,2.988-17.939,6.05-26.956,8.924-1.926.614-2.481,1.529-2.456,3.45.1,7.483.112,14.969-.01,22.451a3.175,3.175,0,0,0,2.44,3.508c5.821,2.211,11.747,4.238,17.326,6.962,5.509,2.69,11.1,1.914,16.662,2.031C52.705,86.9,62.473,79.048,77.725,77.7ZM335.332,89.821V84.186c-15.632-2.54-21.347-8.574-24.207-25.661-17.557-1.318-35.193-2.682-52.841-3.855a3.79,3.79,0,0,0-2.839,2.315c-1.373,6.957-2.954,13.934-3.48,20.979-.589,7.879-.135,15.835-.135,23.757h12.253c4.914-14.7,14.412-22.956,27.24-23.768a29.947,29.947,0,0,1,17.557,4.162c7.582,4.5,12.005,11.333,14.2,19.777,10.025.255,4.781-7.9,7.079-12.071ZM161.918,41.76h73.223c-.631-.7-.9-1.071-1.234-1.364-9.666-8.445-19.213-17.035-29.108-25.2a15.714,15.714,0,0,0-8.515-3.029c-6.577-.443-13.2-.141-19.809-.141H161.918ZM149.655,12.025c-8.695,0-17.03-.072-25.361.085A5.344,5.344,0,0,0,121,13.982c-4.151,4.644-8.163,9.412-12.214,14.145-3.764,4.4-7.516,8.807-11.624,13.623h52.492ZM95.866,108.078a17.954,17.954,0,1,0-17.976,17.73,18.024,18.024,0,0,0,17.976-17.73m215.668-.123a17.953,17.953,0,1,0-17.853,17.854,18.023,18.023,0,0,0,17.853-17.854M60.42,41.241c.105.242.21.485.314.727,6.23,0,12.462.094,18.687-.085a5.33,5.33,0,0,0,3.3-1.844c4.958-5.606,9.784-11.328,14.655-17.011,2.961-3.455,5.925-6.909,9.237-10.772-5.167-.507-9.1-.282-13.026,2.966C82.764,24.173,71.507,32.6,60.42,41.241M323.94,59.833c-.473,6.553,4.923,12.148,11.126,11.459-1.609-5.742-5.112-9.5-11.126-11.459" fill="#ee1243"/>
    <path id="Path_5" data-name="Path 5" d="M77.941,113.814a5.96,5.96,0,1,1,5.927-6,6.016,6.016,0,0,1-5.927,6" fill="#ee1243"/>
    <path id="Path_6" data-name="Path 6" d="M293.7,101.894a5.961,5.961,0,1,1-6.081,5.833,6.02,6.02,0,0,1,6.081-5.833" fill="#ee1243"/>
  </g>
</svg>
