<svg id="Group_16" data-name="Group 16" xmlns="http://www.w3.org/2000/svg" xmlns:xlink="http://www.w3.org/1999/xlink" width="391.35" height="408.791" viewBox="0 0 391.35 408.791">
  <defs>
    <clipPath id="clip-path">
      <rect id="Rectangle_8" data-name="Rectangle 8" width="391.35" height="408.791" fill="#ee1243"/>
    </clipPath>
  </defs>
  <g id="Group_15" data-name="Group 15" clip-path="url(#clip-path)">
    <path id="Path_13" data-name="Path 13" d="M274.686,0c3.826,2.108,5.63,5.461,6.8,9.62q54.353,192.636,108.864,385.226c.253.894.556,1.779.743,2.687,1.081,5.278-1.369,9.658-6.113,10.976-4.311,1.2-8.831-1.5-10.32-6.527-2.678-9.038-5.139-18.14-7.7-27.211Q316,194.424,265.033,14.077C262.86,6.387,263.6,4.313,269.895,0Z" fill="#ee1243"/>
    <path id="Path_14" data-name="Path 14" d="M121.385,0c6.306,4.359,7.021,6.366,4.84,14.09Q71.805,206.8,17.354,399.5a20.785,20.785,0,0,1-1.983,5.184,7.882,7.882,0,0,1-8.884,3.855A8.112,8.112,0,0,1,0,400.5a21.507,21.507,0,0,1,.9-5.469Q55.342,202.33,109.783,9.627c1.172-4.156,2.956-7.536,6.811-9.627Z" fill="#ee1243"/>
    <path id="Path_15" data-name="Path 15" d="M197.237,0c5.107,1.768,7.129,5.542,6.978,10.73-.161,5.554-.056,11.134-.574,16.655-.344,3.656-3.008,5.728-6.64,6.368a7.849,7.849,0,0,1-8.256-3.476c-2.6-3.639-2.577-23.3.247-26.654,1.293-1.536,3.344-2.435,5.051-3.623Z" fill="#ee1243"/>
    <path id="Path_16" data-name="Path 16" d="M187.069,229.954c0-10.771-.07-21.542.024-32.312.057-6.473,3.423-10.223,8.743-10.114a7.958,7.958,0,0,1,7.794,6.186,24.928,24.928,0,0,1,.563,5.522q.056,30.717.023,61.433c0,.664.021,1.33-.009,1.994-.283,6.188-3.565,9.82-8.765,9.712-5-.105-8.261-3.689-8.334-9.711-.133-10.9-.038-21.806-.039-32.71" fill="#ee1243"/>
    <path id="Path_17" data-name="Path 17" d="M204.217,366.074c0,10.373.028,20.746-.026,31.118a23.922,23.922,0,0,1-.592,5.521,8.27,8.27,0,0,1-15.942-.086,19.946,19.946,0,0,1-.568-4.727q-.054-31.716-.011-63.434c.01-6.21,2.366-9.6,7.037-10.457a7.965,7.965,0,0,1,9.564,6.216,24.018,24.018,0,0,1,.515,5.129c.046,10.24.023,20.48.023,30.72" fill="#ee1243"/>
    <path id="Path_18" data-name="Path 18" d="M204.214,102.453c0,7.972.118,15.946-.04,23.914-.135,6.822-4.476,10.721-10.231,9.516a7.594,7.594,0,0,1-6.369-6.258,21.664,21.664,0,0,1-.488-4.333c-.034-15.412-.061-30.824.027-46.236a15.219,15.219,0,0,1,1.117-6.18,7.62,7.62,0,0,1,8.132-4.512c3.8.373,6.418,2.432,7.3,6.247a23.766,23.766,0,0,1,.534,5.123c.055,7.572.024,15.146.021,22.719" fill="#ee1243"/>
  </g>
</svg>
