<svg id="Group_7" data-name="Group 7" xmlns="http://www.w3.org/2000/svg" xmlns:xlink="http://www.w3.org/1999/xlink" width="512" height="512" viewBox="0 0 512 512">
  <defs>
    <clipPath id="clip-path">
      <rect id="Rectangle_3" data-name="Rectangle 3" width="512" height="512" fill="#ee1243"/>
    </clipPath>
  </defs>
  <g id="Group_6" data-name="Group 6" clip-path="url(#clip-path)">
    <path id="Path_18" data-name="Path 18" d="M272,512H240c-6.246-.773-12.506-1.441-18.734-2.333-50.946-7.3-95.965-27.7-134.447-61.885C42.368,408.294,14.609,359.193,3.988,300.6,2.273,291.136,1.31,281.536,0,272V240c1.119-8.557,1.957-17.162,3.4-25.663,9.056-53.254,32.42-99.327,70.349-137.772,38.291-38.811,84.371-63.176,138.157-72.632C221.215,2.3,230.633,1.294,240,0h32c8.717,1.137,17.485,1.98,26.144,3.46,48.078,8.221,90.625,28.309,127.058,60.734,44.544,39.642,72.4,88.868,82.868,147.7,1.656,9.307,2.637,18.734,3.93,28.106v32a27.968,27.968,0,0,0-.831,3.857c-3.022,39.851-14.527,77.136-35.452,111.126-40.672,66.066-99.192,106.747-175.641,121.1C290.8,509.822,281.362,510.714,272,512M232.956,295.85c-2.326-2.188-3.544-3.276-4.7-4.429Q203.513,266.7,178.8,241.944c-6.312-6.355-13.705-8.819-22.3-6.268-15.879,4.714-20.253,23.917-8.185,36.079Q181.4,305.1,214.724,338.207c11.5,11.494,23.126,11.443,34.74-.168q66.966-66.948,133.915-133.914c1.177-1.177,2.385-2.335,3.454-3.607a21.205,21.205,0,0,0-12.56-34.786c-8.127-1.469-14.522,1.658-20.174,7.324q-58.762,58.9-117.6,117.718c-1.386,1.388-2.29,3.255-3.54,5.076" fill="#ee1243"/>
  </g>
</svg>
